<svg fill="none" xmlns="http://www.w3.org/2000/svg" viewBox="0 0 50 175"><path d="M18.734 20.694V18.19h5.033V2.505h-5.033V0h13.477v2.505h-5.033V18.19h5.033v2.504H18.734ZM10.752 34.531H.976v3.08h9.774v-3.08ZM30.337 34.531h-9.774v3.08h9.774v-3.08ZM49.973 34.531h-9.817v3.08h9.817v-3.08ZM25.479 72.43c-4.825 0-6.448-1.767-6.448-6.324V51.447h3.411v15.11c0 2.464 1.123 3.203 3.037 3.203 1.747 0 3.036-.657 3.036-3.203v-15.11h3.41v14.659c0 4.393-1.996 6.323-6.405 6.323h-.041ZM10.752 85.98H.976v3.081h9.774v-3.08ZM30.337 85.98h-9.774v3.081h9.774v-3.08ZM49.973 85.98h-9.817v3.081h9.817v-3.08ZM30.046 123.55l-1.04-4.311h-7.071l-1.04 4.311h-3.66l5.99-20.654h4.491l5.99 20.654h-3.66Zm-4.576-18.765-2.87 11.702h5.74l-2.87-11.702ZM10.752 137.388H.976v3.08h9.774v-3.08ZM30.337 137.388h-9.774v3.08h9.774v-3.08ZM49.973 137.388h-9.817v3.08h9.817v-3.08ZM27.57 175H23.37l-6.572-20.694h3.868l4.825 18.518 4.825-18.518h3.827L27.57 175Z" fill="#fff"/></svg>